<?xml version="1.0" encoding="UTF-8"?><svg id="b" xmlns="http://www.w3.org/2000/svg" xmlns:xlink="http://www.w3.org/1999/xlink" viewBox="0 0 2929.75 567.18"><defs><style>.i{fill:url(#g);}.j{fill:url(#c);}.k{fill:url(#d);}.l{fill:#f4f4f4;}.m,.n{fill:#388270;}.o{stroke:#fff;stroke-width:20px;}.o,.p,.q{fill:none;}.r{fill:#bce254;}.s{fill:#20262c;}.n{stroke:#bce254;stroke-width:3px;}.n,.p,.t,.q{stroke-miterlimit:10;}.u,.t{fill:#fff;}.p{stroke-width:22px;}.p,.t,.q{stroke:#20262c;}.v{fill:#dfe5e8;}.t{stroke-width:13px;}.q{stroke-linecap:round;stroke-width:14px;}</style><linearGradient id="d" x1="350.4" y1="-738.21" x2="350.4" y2="-456.21" gradientTransform="translate(0 -305.74) scale(1 -1)" gradientUnits="userSpaceOnUse"><stop offset="0" stop-color="#ccc"/><stop offset=".5" stop-color="#f2f2f2"/><stop offset="1" stop-color="#fff"/></linearGradient><linearGradient id="e" x1="623.9" y1="-730.21" x2="623.9" y2="-464.2" gradientTransform="translate(0 -305.74) scale(1 -1)" gradientUnits="userSpaceOnUse"><stop offset="0" stop-color="#e6e6e6"/><stop offset=".5" stop-color="#fff"/><stop offset="1" stop-color="#fff"/></linearGradient><linearGradient id="g" x1="342.4" y1="-479.21" x2="342.4" y2="-448.21" gradientTransform="translate(0 -305.74) scale(1 -1)" gradientUnits="userSpaceOnUse"><stop offset="0" stop-color="#e6e6e6"/><stop offset=".5" stop-color="#fff"/><stop offset="1" stop-color="#ccc"/></linearGradient></defs><path class="u" d="M931.34,162.52c.51-5.1,5.1-7.66,13.78-7.66h174.61c8.17,0,14.8,1.53,19.91,4.59l18.38,10.72c4.59,3.58,5.61,8.17,3.06,13.79-13.53,38.55-30.7,78.05-51.5,118.51-20.81,40.46-49.2,77.29-85.2,110.47-35.99,33.19-75.18,56.41-117.55,69.69-10.47,3.06-17.61,2.04-21.44-3.06l-16.85-22.97c-5.36-7.91-4.85-13.02,1.53-15.32,36.5-11.49,71.03-29.93,103.58-55.33,32.55-25.4,59.93-56.6,82.13-93.62,22.21-37.01,36.88-68.54,44.03-94.58h-125.59c-7.66,26.04-21.89,50.87-42.69,74.48-20.81,23.62-40.27,40.65-58.39,51.12-6.13,3.32-11.74,3.32-16.85,0l-24.51-18.38c-4.85-4.59-3.83-9.19,3.06-13.78,59.48-42.12,91.64-85.01,96.49-128.66Z"/><path class="u" d="M1485.79,214.59h-104.15v62.8h179.2c6.13,0,9.19,4.09,9.19,12.25v24.51c0,8.17-3.06,12.25-9.19,12.25h-179.2v85.77c0,5.88,2.55,8.94,7.66,9.19,38.8,2.05,77.6,1.15,116.4-2.68,6.38-.51,9.82,3.45,10.34,11.87l.77,22.59c.25,8.93-2.68,13.65-8.81,14.17-43.91,4.08-87.05,5.1-129.42,3.06-32.68-1.79-49.01-18.64-49.01-50.54v-93.43h-108.75c-6.13,0-9.19-4.08-9.19-12.25v-24.51c0-8.17,3.06-12.25,9.19-12.25h108.75v-62.8h-58.2c-6.13,0-9.19-4.08-9.19-12.25v-24.51c0-8.17,3.06-12.25,9.19-12.25h214.43c7.14,0,10.72,4.09,10.72,12.25v24.51c0,8.17-3.58,12.25-10.72,12.25Z"/><path class="u" d="M1692.56,200.81c.51-8.93,4.59-13.02,12.25-12.25l32.16,3.06c4.85.51,6.89,6.13,6.13,16.85-8.94,99.3-42.38,184.05-100.32,254.25-4.34,4.85-10.98,4.98-19.91.38l-22.59-11.87c-6.64-4.34-6.77-10.59-.38-18.76,56.41-70.96,87.3-148.19,92.66-231.66ZM1801.3,216.13c-3.06-4.85-2.55-8.42,1.53-10.72l29.1-16.85c4.08-2.55,9.19.51,15.32,9.19,44.67,65.35,82.96,145,114.87,238.93,3.06,9.19,2.04,14.8-3.06,16.85l-32.16,10.72c-6.38,2.04-11.49-2.05-15.32-12.25-26.55-88.07-63.31-166.69-110.28-235.87Z"/><path class="o" d="M931.34,162.52c.51-5.1,5.1-7.66,13.78-7.66h174.61c8.17,0,14.8,1.53,19.91,4.59l18.38,10.72c4.59,3.58,5.61,8.17,3.06,13.79-13.53,38.55-30.7,78.05-51.5,118.51-20.81,40.46-49.2,77.29-85.2,110.47-35.99,33.19-75.18,56.41-117.55,69.69-10.47,3.06-17.61,2.04-21.44-3.06l-16.85-22.97c-5.36-7.91-4.85-13.02,1.53-15.32,36.5-11.49,71.03-29.93,103.58-55.33,32.55-25.4,59.93-56.6,82.13-93.62,22.21-37.01,36.88-68.54,44.03-94.58h-125.59c-7.66,26.04-21.89,50.87-42.69,74.48-20.81,23.62-40.27,40.65-58.39,51.12-6.13,3.32-11.74,3.32-16.85,0l-24.51-18.38c-4.85-4.59-3.83-9.19,3.06-13.78,59.48-42.12,91.64-85.01,96.49-128.66Z"/><path class="o" d="M1485.79,214.59h-104.15v62.8h179.2c6.13,0,9.19,4.09,9.19,12.25v24.51c0,8.17-3.06,12.25-9.19,12.25h-179.2v85.77c0,5.88,2.55,8.94,7.66,9.19,38.8,2.05,77.6,1.15,116.4-2.68,6.38-.51,9.82,3.45,10.34,11.87l.77,22.59c.25,8.93-2.68,13.65-8.81,14.17-43.91,4.08-87.05,5.1-129.42,3.06-32.68-1.79-49.01-18.64-49.01-50.54v-93.43h-108.75c-6.13,0-9.19-4.08-9.19-12.25v-24.51c0-8.17,3.06-12.25,9.19-12.25h108.75v-62.8h-58.2c-6.13,0-9.19-4.08-9.19-12.25v-24.51c0-8.17,3.06-12.25,9.19-12.25h214.43c7.14,0,10.72,4.09,10.72,12.25v24.51c0,8.17-3.58,12.25-10.72,12.25Z"/><path class="o" d="M1692.56,200.81c.51-8.93,4.59-13.02,12.25-12.25l32.16,3.06c4.85.51,6.89,6.13,6.13,16.85-8.94,99.3-42.38,184.05-100.32,254.25-4.34,4.85-10.98,4.98-19.91.38l-22.59-11.87c-6.64-4.34-6.77-10.59-.38-18.76,56.41-70.96,87.3-148.19,92.66-231.66ZM1801.3,216.13c-3.06-4.85-2.55-8.42,1.53-10.72l29.1-16.85c4.08-2.55,9.19.51,15.32,9.19,44.67,65.35,82.96,145,114.87,238.93,3.06,9.19,2.04,14.8-3.06,16.85l-32.16,10.72c-6.38,2.04-11.49-2.05-15.32-12.25-26.55-88.07-63.31-166.69-110.28-235.87Z"/><g id="c"><path class="k" d="M21.4,432.46V150.46h607.13c28.05,0,50.87,22.82,50.87,50.87v215.43c0,8.66-7.04,15.7-15.7,15.7H21.4Z"/><path class="s" d="M628.53,158.46c23.68,0,42.87,19.19,42.87,42.87v215.43c0,4.25-3.45,7.7-7.7,7.7H29.4V158.46h599.13M628.53,142.46H13.4v298h650.3c13.07,0,23.7-10.63,23.7-23.7v-215.43c0-32.46-26.41-58.87-58.87-58.87h0Z"/><rect class="m" x="29.4" y="335.46" width="547" height="75"/><path class="j" d="M628.79,158.46h-52.39v266h87.3c4.25,0,7.7-3.45,7.7-7.7v-215.7c0-23.53-19.08-42.61-42.61-42.61h0Z"/><rect class="l" x="29.4" y="158.46" width="547" height="31"/><g id="f"><polyline class="p" points="237.4 172.22 237.4 142.46 447.4 142.46 447.4 172.22"/><rect class="i" x="237.4" y="142.46" width="210" height="31"/></g><circle class="s" cx="225.4" cy="487.46" r="44" transform="translate(-291.88 631.87) rotate(-80.78)"/><path class="s" d="M225.4,450.46c20.4,0,37,16.6,37,37s-16.6,37-37,37-37-16.6-37-37,16.6-37,37-37M225.4,436.46c-28.17,0-51,22.83-51,51s22.83,51,51,51,51-22.83,51-51-22.83-51-51-51h0Z"/><circle class="s" cx="123.4" cy="487.46" r="44"/><path class="s" d="M123.4,450.46c20.4,0,37,16.6,37,37s-16.6,37-37,37-37-16.6-37-37,16.6-37,37-37M123.4,436.46c-28.17,0-51,22.83-51,51s22.83,51,51,51,51-22.83,51-51-22.83-51-51-51h0Z"/><circle class="s" cx="577.4" cy="487.46" r="44"/><path class="s" d="M577.4,450.46c20.4,0,37,16.6,37,37s-16.6,37-37,37-37-16.6-37-37,16.6-37,37-37M577.4,436.46c-28.17,0-51,22.83-51,51s22.83,51,51,51,51-22.83,51-51-22.83-51-51-51h0Z"/><circle class="s" cx="475.4" cy="487.46" r="44"/><path class="s" d="M475.4,450.46c20.4,0,37,16.6,37,37s-16.6,37-37,37-37-16.6-37-37,16.6-37,37-37M475.4,436.46c-28.17,0-51,22.83-51,51s22.83,51,51,51,51-22.83,51-51-22.83-51-51-51h0Z"/><polygon class="n" points="671.51 359.75 635.24 320.09 648.06 309.29 684.33 348.95 671.51 359.75"/><g id="h"><polyline class="q" points="167.9 58.96 76.9 113.96 168.9 170.96"/></g><rect class="r" x="29.4" y="334.46" width="547" height="23"/><rect class="u" x="29.4" y="324.46" width="547" height="10"/><rect class="s" x="671.4" y="195.46" width="15" height="188"/><path class="t" d="M678.9,202.96l-40.53,2.8c-10.9,2.53-18.11,14.18-16.38,26.47l9.78,69.42c.74,5.22,2.99,10.04,6.41,13.69l41.73,29.63-1-142h0Z"/></g><path class="v" d="M2106.54,487.46v-78.78h-22.35v-18.75h22.35v-12.12c0-10.61,3-18.68,9-24.24,6-5.55,14.61-8.33,25.85-8.33,2.52,0,5.08.16,7.67.47,2.59.32,4.83.79,6.72,1.42v18.75c-2.27-.63-4.29-1.07-6.06-1.33-1.77-.25-3.73-.38-5.87-.38-5.05,0-8.87,1.17-11.46,3.5-2.59,2.34-3.88,5.9-3.88,10.7v11.55h27.27v18.75h-27.27v78.78h-21.97Z"/><path class="v" d="M2212.4,489.36c-9.6,0-18.27-2.24-26.04-6.72-7.76-4.48-13.92-10.54-18.46-18.18-4.55-7.64-6.82-16.19-6.82-25.66s2.27-18.02,6.82-25.66c4.54-7.64,10.7-13.7,18.46-18.18,7.76-4.48,16.44-6.72,26.04-6.72s18.46,2.24,26.23,6.72c7.76,4.48,13.92,10.54,18.46,18.18,4.54,7.64,6.82,16.19,6.82,25.66s-2.27,18.02-6.82,25.66c-4.54,7.64-10.7,13.7-18.46,18.18-7.76,4.48-16.51,6.72-26.23,6.72ZM2212.4,470.04c5.55,0,10.57-1.39,15.06-4.17,4.48-2.78,8.05-6.53,10.7-11.27s3.98-10,3.98-15.81-1.33-11.24-3.98-15.91c-2.65-4.67-6.22-8.39-10.7-11.17-4.48-2.78-9.44-4.17-14.87-4.17s-10.61,1.39-15.15,4.17c-4.54,2.78-8.11,6.5-10.7,11.17-2.59,4.67-3.88,9.97-3.88,15.91s1.29,11.08,3.88,15.81c2.59,4.73,6.12,8.49,10.6,11.27,4.48,2.78,9.5,4.17,15.06,4.17Z"/><path class="v" d="M2280.96,487.46v-97.53h22.16v11.74c3.03-4.42,6.79-7.83,11.27-10.23,4.48-2.4,9.5-3.6,15.06-3.6,4.42,0,7.83.63,10.23,1.89v19.7c-1.77-.88-3.69-1.52-5.78-1.89-2.08-.38-4.2-.57-6.34-.57-5.3,0-10.07,1.39-14.3,4.17-4.23,2.78-7.61,6.76-10.13,11.93v64.39h-22.16Z"/><path class="v" d="M2395.33,487.46v-132.56h62.12c8.96,0,16.82,1.67,23.58,5.02,6.75,3.35,11.99,8.05,15.72,14.11,3.72,6.06,5.59,13.07,5.59,21.02,0,8.46-2.4,15.91-7.2,22.35-4.8,6.44-11.24,11.11-19.32,14.01l29.35,56.05h-25.95l-26.7-52.65h-33.9v52.65h-23.29ZM2418.63,415.5h36.93c7.07,0,12.72-1.83,16.95-5.49,4.23-3.66,6.34-8.58,6.34-14.77s-2.12-10.76-6.34-14.49c-4.23-3.72-9.88-5.59-16.95-5.59h-36.93v40.34Z"/><path class="v" d="M2561.41,489.17c-9.72,0-18.46-2.21-26.23-6.63-7.76-4.42-13.95-10.45-18.56-18.08-4.61-7.64-6.91-16.19-6.91-25.66s2.21-17.99,6.63-25.57c4.42-7.58,10.35-13.6,17.8-18.08,7.45-4.48,15.78-6.72,25-6.72s17.39,2.27,24.52,6.82c7.13,4.54,12.78,10.7,16.95,18.46s6.25,16.57,6.25,26.42v5.87h-74.61c1.01,4.8,2.9,9.03,5.68,12.69,2.78,3.66,6.31,6.53,10.6,8.62,4.29,2.08,8.9,3.12,13.82,3.12,4.54,0,8.87-.69,12.97-2.08,4.1-1.39,7.54-3.41,10.32-6.06l14.39,13.63c-5.81,4.54-11.81,7.89-17.99,10.04-6.19,2.14-13.07,3.22-20.64,3.22ZM2532.06,429.89h52.84c-.88-4.54-2.59-8.52-5.11-11.93-2.53-3.41-5.59-6.09-9.18-8.05-3.6-1.96-7.55-2.94-11.84-2.94s-8.49.95-12.21,2.84c-3.73,1.89-6.82,4.54-9.28,7.95-2.46,3.41-4.2,7.45-5.21,12.12Z"/><path class="v" d="M2653.83,489.17c-6.95,0-13.1-1.26-18.46-3.79-5.37-2.52-9.56-6.03-12.59-10.51-3.03-4.48-4.55-9.62-4.55-15.43,0-9.34,3.5-16.6,10.51-21.78,7.01-5.18,16.63-7.76,28.88-7.76,9.09,0,17.55,1.52,25.38,4.54v-8.71c0-6.31-1.86-11.05-5.59-14.2-3.73-3.15-9.25-4.73-16.57-4.73-4.29,0-8.84.63-13.64,1.89-4.8,1.26-10.29,3.35-16.48,6.25l-7.95-16.67c7.45-3.41,14.52-5.96,21.21-7.67,6.69-1.71,13.45-2.56,20.26-2.56,12.88,0,22.85,3.09,29.92,9.28,7.07,6.19,10.6,14.9,10.6,26.13v64.01h-21.78v-7.76c-4.17,3.29-8.65,5.68-13.45,7.2-4.8,1.52-10.04,2.27-15.72,2.27ZM2639.25,458.87c0,4.29,1.83,7.73,5.49,10.32,3.66,2.59,8.52,3.88,14.58,3.88,4.67,0,9-.66,12.97-1.99,3.98-1.33,7.54-3.31,10.7-5.97v-15.53c-3.41-1.64-6.98-2.87-10.7-3.69-3.73-.82-7.8-1.23-12.21-1.23-6.44,0-11.52,1.26-15.25,3.79-3.72,2.53-5.59,6-5.59,10.42Z"/><path class="v" d="M2771.81,489.17c-9.47,0-18.02-2.21-25.66-6.63-7.64-4.42-13.7-10.45-18.18-18.08-4.48-7.64-6.72-16.19-6.72-25.66s2.24-18.18,6.72-25.75c4.48-7.58,10.54-13.63,18.18-18.18,7.64-4.54,16.19-6.82,25.66-6.82,7.58,0,14.83,1.45,21.78,4.36,6.94,2.91,12.94,7.07,17.99,12.5l-13.63,14.77c-3.66-4.04-7.64-7.04-11.93-9-4.29-1.96-8.84-2.94-13.63-2.94-5.43,0-10.35,1.36-14.77,4.07-4.42,2.72-7.92,6.41-10.51,11.08-2.59,4.67-3.88,9.97-3.88,15.91s1.29,11.08,3.88,15.81c2.59,4.73,6.15,8.46,10.7,11.17,4.54,2.72,9.53,4.07,14.96,4.07,4.67,0,9.06-.95,13.16-2.84,4.1-1.89,7.98-4.73,11.65-8.52l13.45,14.01c-5.05,5.3-10.98,9.41-17.8,12.31-6.82,2.9-13.95,4.36-21.4,4.36Z"/><path class="v" d="M2871.04,489.17c-10.1,0-17.77-2.33-23.01-7.01-5.24-4.67-7.86-11.49-7.86-20.45v-53.03h-20.45v-18.75h20.45v-24.81l22.16-5.11v29.92h28.22v18.75h-28.22v48.29c0,4.8,1.04,8.21,3.12,10.23,2.08,2.02,5.65,3.03,10.7,3.03,2.65,0,5.02-.19,7.1-.57,2.08-.38,4.32-.95,6.72-1.7v18.37c-2.53.88-5.62,1.58-9.28,2.08-3.66.5-6.88.76-9.66.76Z"/></svg>